PathFileType	4	(X/Y/Z)	/Users/visionmauri/1_7_1_f_Sports2D/1_7_1_f_Sports2D_px_person00.trc
DataRate	CameraRate	NumFrames	NumMarkers	Units	OrigDataRate	OrigDataStartFrame	OrigNumFrames
30.0	30.0	6	22	m	30.0	243	389
Frame#	Time	Hip			RHip			RKnee			RAnkle			RBigToe			RSmallToe			RHeel			LHip			LKnee			LAnkle			LBigToe			LSmallToe			LHeel			Neck			Head			Nose			RShoulder			RElbow			RWrist			LShoulder			LElbow			LWrist			
		X1	Y1	Z1	X2	Y2	Z2	X3	Y3	Z3	X4	Y4	Z4	X5	Y5	Z5	X6	Y6	Z6	X7	Y7	Z7	X8	Y8	Z8	X9	Y9	Z9	X10	Y10	Z10	X11	Y11	Z11	X12	Y12	Z12	X13	Y13	Z13	X14	Y14	Z14	X15	Y15	Z15	X16	Y16	Z16	X17	Y17	Z17	X18	Y18	Z18	X19	Y19	Z19	X20	Y20	Z20	X21	Y21	Z21	X22	Y22	Z22
243	8.120876288659794	622.3159191261905	802.1902540622747	0.0	564.6653322808888	804.4022373573065	0.0	562.2260192032404	1017.5542399445806	0.0	569.866283335119	1232.4720423405242	0.0	567.0202337318399	1297.2428823893283	0.0	540.1391013133117	1292.019167340615	0.0	574.9888109815485	1261.5855493377142	0.0	678.161875281567	808.0534109900684	0.0	674.6636941508924	992.6227162660748	0.0	656.4904751268743	1188.804540211587	0.0	648.5950686409865	1262.844776988521	0.0	676.3298807254629	1254.8820508801298	0.0	658.6245469665041	1214.42603719479	0.0	644.1354370775199	524.1599703701179	0.0	647.9907162332223	381.7408514609658	0.0	648.6864065612673	495.09731543181056	0.0	542.0965983543391	539.8053445940606	0.0	501.2234785786517	665.8905304114929	0.0	459.4604464962711	780.0258404526979	0.0	742.4985645141734	544.842995459976	0.0	780.0696920934881	681.9787222750521	0.0	783.3215653779916	708.2978275333988	0.0
244	8.154295532646048	621.6555197468487	804.6353366678815	0.0	564.4095745924104	807.2235012920855	0.0	564.6915961622506	1021.2392133321313	0.0	570.3949302143744	1237.7280984674403	0.0	573.1364655420017	1301.2888579775156	0.0	544.8898330292305	1297.8966796381483	0.0	574.753317790218	1267.0186236641978	0.0	677.0113873487956	810.6534645581023	0.0	673.290822900185	994.3430778639704	0.0	655.5031741589871	1187.7572585348128	0.0	648.4236302222594	1264.1791090753031	0.0	676.0545081085847	1253.230201214754	0.0	657.9242635505054	1213.0860475342295	0.0	642.2351445640618	522.7374294580264	0.0	647.7792169754466	379.942067397606	0.0	650.4870987843648	492.6362561063553	0.0	539.5294462913818	540.6158076348348	0.0	500.03719616006185	666.3367291479772	0.0	458.5598531095002	779.7161320197173	0.0	742.6051201833006	545.6382547692895	0.0	778.8541862229188	684.0950488541885	0.0	780.692549130218	712.2664844895505	0.0
245	8.187714776632303	620.8803347079279	806.3777340088153	0.0	564.1554846453067	810.7405459722141	0.0	566.3337243232992	1024.5095796255534	0.0	572.3709201167571	1241.1924051103672	0.0	579.4637960230468	1307.2064494469782	0.0	549.6129476757097	1303.6582569791353	0.0	575.8190864804131	1270.5310792333876	0.0	675.3319600654306	813.7865608734758	0.0	672.0657912157325	995.7260204624198	0.0	654.1922120089146	1183.8138143257418	0.0	648.2415912301144	1263.343098600097	0.0	674.847574010083	1249.9145381779167	0.0	654.2422986718672	1212.8515299780736	0.0	640.0306101644123	520.7129777276272	0.0	646.8269280040392	379.034944374946	0.0	650.8804689414164	489.13540306828065	0.0	536.3358606908664	541.4974420688177	0.0	498.40922626881223	666.8343928964279	0.0	458.0083345841224	778.9018851137903	0.0	742.1525645374529	546.8154432424308	0.0	777.560941329799	685.4034420576638	0.0	779.1045952737065	715.1689472212225	0.0
246	8.221134020618557	619.7755009823899	807.2014214897494	0.0	563.4701716985652	813.1918102916482	0.0	567.4911373304919	1026.683098537332	0.0	574.5745034612061	1244.1537193052386	0.0	583.2763518900775	1314.9573430168907	0.0	551.9578431853289	1309.619947349119	0.0	577.1500822352737	1273.1343718958594	0.0	673.8514047638279	815.7650830907879	0.0	671.7834195897116	996.1675031017747	0.0	653.2694958737501	1176.9525726125892	0.0	648.6618630461969	1261.5183865075182	0.0	674.1182506649674	1247.1704142006452	0.0	650.3560740567249	1209.9678833943	0.0	637.6657180719964	519.5190763436854	0.0	645.0432792854616	377.4707599789076	0.0	649.967033277455	485.26870155979503	0.0	532.9993190340873	542.0582914112624	0.0	496.39233804971127	666.6418129389593	0.0	458.0616645308271	777.9292547615225	0.0	740.1117821867952	547.3266713026653	0.0	775.6506711158719	685.6722484744345	0.0	779.228363582511	716.7312021338439	0.0
247	8.25455326460481	618.0821513145532	807.2408370547886	0.0	562.0900470129133	813.2448320789773	0.0	567.9630247020194	1027.7062343595014	0.0	575.7126123783356	1247.3336004664873	0.0	583.6974433723691	1322.852364737441	0.0	550.9984827796408	1315.8180482630335	0.0	577.8421550535638	1275.472927488247	0.0	672.8428112703567	815.9298091568737	0.0	671.8102365722506	997.0004803512592	0.0	653.1372469878115	1169.6178189454195	0.0	650.2468514330258	1260.962608819021	0.0	675.4190017558235	1247.3371029070634	0.0	648.4012560865046	1204.623823438871	0.0	634.5854034140962	519.5629959941485	0.0	642.1910006420127	374.1016606475142	0.0	647.0150936332674	482.13622496831505	0.0	529.4548047514461	541.572018254418	0.0	494.5441597852768	664.0031259205778	0.0	458.23610421239425	777.1859372945344	0.0	736.401118900031	546.1990441342011	0.0	773.214196504341	685.505620780812	0.0	779.5400636567826	715.3429542140112	0.0
248	8.287972508591064	616.3779800473403	806.9529818952057	0.0	560.0690174193644	812.8666005562387	0.0	566.9225494120556	1028.8304966301882	0.0	575.688647881239	1250.3810734771453	0.0	582.5394332880924	1328.5349517898667	0.0	548.7029325965761	1320.9033324604068	0.0	578.1870867399255	1277.6164086186081	0.0	672.0495555640845	815.5697764021043	0.0	671.2480649074109	998.4495284619043	0.0	653.815684601197	1166.3886245853353	0.0	652.1177030744246	1261.8302116604445	0.0	678.0782359582953	1249.0974194690566	0.0	648.0615494159165	1200.9904049516113	0.0	630.8133591627716	518.9691978629563	0.0	638.0570066171896	370.07797412545887	0.0	641.8625076227194	479.4916598976698	0.0	525.5056046772225	540.5181778981894	0.0	492.74653763638696	660.415360854576	0.0	457.35866988365746	776.7825650785335	0.0	732.6506556716191	544.2199994690345	0.0	771.154501155	685.7279822893126	0.0	778.9669394369457	713.2692274720475	0.0
